:FULLY-SPECIFIED
:FORCE-ALL-JOINTS-BE-3DOF
:DEGREES
2446
root 2.47565 15.1993 -23.7252 944.322 81.8505 -132.099
lfemur -33.4346 19.642 -13.1965
ltibia 70.4568 0 0
lfoot -24.3976 17.5429 0
ltoes -32.9661 0 0
rfemur -46.0721 -22.2954 10.9039
rtibia 56.3447 0 0
rfoot 13.5676 -1.34628 0
rtoes 10.4764 0 0
lowerback 18.2461 0.80224 -3.08751
upperback 0.11478 0.941217 4.05904
thorax -10.281 0.775769 5.98484
lowerneck 3.83196 -13.0949 -14.8118
upperneck 1.15554 -18.261 13.4513
head 2.32821 -9.22523 5.798
lclavicle 7.29483e-15 -2.29596e-14 0
lhumerus -18.0585 -64.6358 103.403
lradius 97.3508 0 0
lwrist 54.4482 0 0
lhand -5.5334 403.795 0
lfingers 7.12502 0 0
lthumb 19.5809 -645.035 0
rclavicle -2.11652e-14 7.29824e-15 0
rhumerus 22.8603 23.7117 -62.5146
rradius 111.093 0 0
rwrist 10.5176 0 0
rhand -24.0211 -403.772 0
rfingers 7.12502 0 0
rthumb 2.21033 285.861 0
2447
root 2.55258 15.1746 -23.726 941.721 81.8461 -134.524
lfemur -32.9117 19.8537 -13.0843
ltibia 70.8609 0 0
lfoot -24.7914 17.5527 0
ltoes -33.2775 0 0
rfemur -46.1807 -22.5263 10.7903
rtibia 54.2546 0 0
rfoot 15.1166 -0.854413 0
rtoes 10.6364 0 0
lowerback 18.1739 0.671658 -3.41623
upperback 0.0188028 0.68686 3.99
thorax -10.3177 0.670219 6.16918
lowerneck 3.7539 -13.1023 -14.8188
upperneck 1.66533 -18.2891 13.26
head 2.47749 -9.23511 5.71705
lclavicle 7.93514e-15 -2.23136e-14 0
lhumerus -19.3537 -63.7604 103.839
lradius 98.115 0 0
lwrist 56.0967 0 0
lhand -4.70512 403.98 0
lfingers 7.12502 0 0
lthumb 20.3737 -644.838 0
rclavicle -1.81782e-14 7.70527e-15 0
rhumerus 22.0353 22.0796 -62.8869
rradius 111.197 0 0
rwrist 13.5557 0 0
rhand -25.0754 -403.951 0
rfingers 7.12502 0 0
rthumb 1.31541 285.697 0
2448
root 2.62795 15.1577 -23.7255 940.616 81.6626 -135.406
lfemur -32.3887 20.0654 -12.9721
ltibia 71.265 0 0
lfoot -25.1851 17.5625 0
ltoes -33.589 0 0
rfemur -46.2892 -22.7572 10.6767
rtibia 52.1646 0 0
rfoot 16.6656 -0.362541 0
rtoes 10.7963 0 0
lowerback 18.1072 0.542451 -3.41659
upperback -0.0650043 0.516758 4.00332
thorax -10.3509 0.591805 6.23109
lowerneck 3.74396 -13.1214 -14.9944
upperneck 2.13706 -18.3463 13.125
head 2.62968 -9.26348 5.67862
lclavicle 8.57546e-15 -2.16675e-14 0
lhumerus -20.6489 -62.8849 104.276
lradius 98.8792 0 0
lwrist 57.7452 0 0
lhand -3.87683 404.164 0
lfingers 7.12502 0 0
lthumb 20.8885 -644.98 0
rclavicle -1.51911e-14 8.11231e-15 0
rhumerus 21.2103 20.4474 -63.2591
rradius 111.301 0 0
rwrist 16.5938 0 0
rhand -26.1296 -404.131 0
rfingers 7.12502 0 0
rthumb 0.420486 285.534 0
2449
root 2.70131 15.1312 -23.7268 937.995 81.7618 -137.957
lfemur -31.8657 20.2771 -12.8599
ltibia 71.669 0 0
lfoot -25.5788 17.5723 0
ltoes -33.9004 0 0
rfemur -46.3978 -22.9882 10.5632
rtibia 50.0745 0 0
rfoot 18.2145 0.129331 0
rtoes 10.9563 0 0
lowerback 17.9557 0.449838 -3.74183
upperback -0.177033 0.309646 3.89609
thorax -10.3636 0.506548 6.3557
lowerneck 3.61736 -13.1423 -15.0827
upperneck 2.65235 -18.3883 12.9537
head 2.8003 -9.28005 5.6093
lclavicle 9.21578e-15 -2.10215e-14 0
lhumerus -21.9441 -62.0095 104.713
lradius 99.6433 0 0
lwrist 59.3936 0 0
lhand -3.04855 404.348 0
lfingers 7.12502 0 0
lthumb 21.4032 -645.122 0
rclavicle -1.2204e-14 8.51934e-15 0
rhumerus 20.3853 18.8152 -63.6314
rradius 111.404 0 0
rwrist 19.6319 0 0
rhand -27.1838 -404.31 0
rfingers 7.12502 0 0
rthumb -0.474438 285.37 0
2450
root 2.77555 15.106 -23.7244 936.408 81.6851 -139.359
lfemur -31.3428 20.4888 -12.7477
ltibia 72.0731 0 0
lfoot -25.9725 17.5822 0
ltoes -34.2118 0 0
rfemur -46.5064 -23.2191 10.4496
rtibia 47.9845 0 0
rfoot 19.7635 0.621203 0
rtoes 11.1162 0 0
lowerback 17.8862 0.382994 -3.75167
upperback -0.239118 0.211761 3.84071
thorax -10.3794 0.45922 6.32541
lowerneck 3.46457 -13.2494 -15.2656
upperneck 3.1468 -18.5445 12.7924
head 2.9948 -9.35394 5.5428
lclavicle 9.8561e-15 -2.03754e-14 0
lhumerus -23.2392 -61.134 105.15
lradius 100.408 0 0
lwrist 61.0421 0 0
lhand -2.51579 404.36 0
lfingers 7.12502 0 0
lthumb 21.918 -645.264 0
rclavicle -9.21686e-15 8.92638e-15 0
rhumerus 19.5603 17.183 -64.0037
rradius 111.508 0 0
rwrist 22.67 0 0
rhand -28.238 -404.49 0
rfingers 7.12502 0 0
rthumb -1.36936 285.206 0
2451
root 2.84812 15.0778 -23.7237 936.422 81.6004 -139.319
lfemur -30.8198 20.7005 -12.6354
ltibia 72.4772 0 0
lfoot -26.3663 17.592 0
ltoes -34.5233 0 0
rfemur -46.615 -23.45 10.336
rtibia 45.8944 0 0
rfoot 21.3124 1.11307 0
rtoes 11.2762 0 0
lowerback 17.6992 0.271475 -3.60824
upperback -0.339907 0.0977675 3.85666
thorax -10.3695 0.398635 6.28788
lowerneck 3.33215 -13.2605 -15.3614
upperneck 3.4677 -18.556 12.6002
head 3.10337 -9.3573 5.47734
lclavicle 1.04964e-14 -1.97294e-14 0
lhumerus -24.5344 -60.2585 105.587
lradius 101.172 0 0
lwrist 62.6906 0 0
lhand -1.98302 404.371 0
lfingers 7.12502 0 0
lthumb 22.4328 -645.405 0
rclavicle -6.22977e-15 9.33341e-15 0
rhumerus 18.7353 15.5508 -64.376
rradius 111.612 0 0
rwrist 25.7081 0 0
rhand -29.2922 -404.669 0
rfingers 7.12502 0 0
rthumb -2.26429 285.042 0
2452
root 2.92071 15.0439 -23.7203 934.281 81.7245 -141.462
lfemur -30.2968 20.9122 -12.5232
ltibia 72.8813 0 0
lfoot -26.76 17.6018 0
ltoes -34.8347 0 0
rfemur -46.7235 -23.6809 10.2224
rtibia 43.8044 0 0
rfoot 22.8614 1.60495 0
rtoes 11.4361 0 0
lowerback 17.5355 0.245878 -3.81333
upperback -0.44366 0.0111462 3.77982
thorax -10.3809 0.366037 6.34277
lowerneck 3.25483 -13.3374 -15.5251
upperneck 3.68457 -18.6592 12.4377
head 3.19404 -9.4093 5.42763
lclavicle 1.11367e-14 -1.90833e-14 0
lhumerus -25.8296 -59.3831 106.024
lradius 101.936 0 0
lwrist 64.3391 0 0
lhand -1.45026 404.383 0
lfingers 7.12502 0 0
lthumb 22.9475 -645.547 0
rclavicle -3.24267e-15 9.74045e-15 0
rhumerus 17.9104 13.9187 -64.7483
rradius 111.716 0 0
rwrist 28.7462 0 0
rhand -30.3464 -404.849 0
rfingers 7.12502 0 0
rthumb -3.15921 284.879 0
2453
root 2.98599 15.0111 -23.7174 933.73 81.7125 -142.071
lfemur -29.7739 21.1239 -12.411
ltibia 73.2854 0 0
lfoot -27.1537 17.6116 0
ltoes -35.1461 0 0
rfemur -46.8321 -23.9118 10.1088
rtibia 44.337 0 0
rfoot 24.4103 2.09682 0
rtoes 11.5961 0 0
lowerback 17.3751 0.128729 -3.785
upperback -0.56605 -0.134138 3.80741
thorax -10.4062 0.298719 6.3943
lowerneck 3.19043 -13.3323 -15.6393
upperneck 3.79875 -18.6442 12.2692
head 3.23036 -9.40309 5.38598
lclavicle 1.1777e-14 -1.84373e-14 0
lhumerus -27.1248 -58.5076 106.461
lradius 102.7 0 0
lwrist 65.9875 0 0
lhand -0.917495 404.394 0
lfingers 7.12502 0 0
lthumb 23.4623 -645.689 0
rclavicle -3.29288e-15 1.01463e-14 0
rhumerus 17.0854 12.2865 -65.1206
rradius 111.819 0 0
rwrist 31.7842 0 0
rhand -31.4007 -405.028 0
rfingers 7.12502 0 0
rthumb -4.05413 284.715 0
